<?xml version="1.0" encoding="UTF-8" standalone="no"?> <svg width="24" height="24" viewBox="0 0 24 24" fill="none" xmlns="http://www.w3.org/2000/svg">
<path fill-rule="evenodd" clip-rule="evenodd" d="M8.82837 6C8.56315 6 8.3088 6.10536 8.12126 6.29289L3.12126 11.2929C2.73074 11.6834 2.73074 12.3166 3.12126 12.7071L8.12126 17.7071C8.3088 17.8946 8.56315 18 8.82837 18H20.9999C21.5522 18 21.9999 17.5523 21.9999 17V7C21.9999 6.44772 21.5522 6 20.9999 6H8.82837ZM6.70705 4.87868C7.26966 4.31607 8.03272 4 8.82837 4H20.9999C22.6568 4 23.9999 5.34315 23.9999 7V17C23.9999 18.6569 22.6568 20 20.9999 20H8.82837C8.03272 20 7.26966 19.6839 6.70705 19.1213L1.70705 14.1213C0.535474 12.9497 0.535478 11.0503 1.70705 9.87868L6.70705 4.87868ZM8.29284 9.29289C8.68336 8.90237 9.31653 8.90237 9.70705 9.29289L10.9999 10.5858L12.2928 9.29289C12.6834 8.90237 13.3165 8.90237 13.707 9.29289C14.0976 9.68342 14.0976 10.3166 13.707 10.7071L12.4142 12L13.707 13.2929C14.0976 13.6834 14.0976 14.3166 13.707 14.7071C13.3165 15.0976 12.6834 15.0976 12.2928 14.7071L10.9999 13.4142L9.70705 14.7071C9.31653 15.0976 8.68336 15.0976 8.29284 14.7071C7.90231 14.3166 7.90231 13.6834 8.29284 13.2929L9.58573 12L8.29284 10.7071C7.90231 10.3166 7.90231 9.68342 8.29284 9.29289Z" fill="#293644"/>
</svg>
