<?xml version="1.0" encoding="UTF-8" standalone="no"?> <svg width="24" height="24" viewBox="0 0 24 24" fill="none" xmlns="http://www.w3.org/2000/svg">
<path fill-rule="evenodd" clip-rule="evenodd" d="M11 2C10.4477 2 10 2.44772 10 3V4H14V3C14 2.44772 13.5523 2 13 2H11ZM16 4V3C16 1.34315 14.6569 0 13 0H11C9.34315 0 8 1.34315 8 3V4H3C2.44772 4 2 4.44772 2 5C2 5.55228 2.44772 6 3 6H3.10496L4.80843 21.3313C4.97725 22.8506 6.26144 24 7.79009 24H16.2099C17.7386 24 19.0228 22.8506 19.1916 21.3313L20.895 6H21C21.5523 6 22 5.55228 22 5C22 4.44772 21.5523 4 21 4H16ZM18.8827 6H5.11726L6.7962 21.1104C6.85247 21.6169 7.28054 22 7.79009 22H16.2099C16.7195 22 17.1475 21.6169 17.2038 21.1104L18.8827 6ZM9.29289 12.7071C8.90237 12.3166 8.90237 11.6834 9.29289 11.2929C9.68342 10.9024 10.3166 10.9024 10.7071 11.2929L12 12.5858L13.2929 11.2929C13.6834 10.9024 14.3166 10.9024 14.7071 11.2929C15.0976 11.6834 15.0976 12.3166 14.7071 12.7071L13.4142 14L14.7071 15.2929C15.0976 15.6834 15.0976 16.3166 14.7071 16.7071C14.3166 17.0976 13.6834 17.0976 13.2929 16.7071L12 15.4142L10.7071 16.7071C10.3166 17.0976 9.68342 17.0976 9.29289 16.7071C8.90237 16.3166 8.90237 15.6834 9.29289 15.2929L10.5858 14L9.29289 12.7071Z" fill="#293644"/>
</svg>
