<?xml version="1.0" encoding="UTF-8" standalone="no"?> <svg width="24" height="24" viewBox="0 0 24 24" fill="none" xmlns="http://www.w3.org/2000/svg">
<path fill-rule="evenodd" clip-rule="evenodd" d="M1 2C1 1.44772 1.44772 1 2 1H7C7.55228 1 8 1.44772 8 2C8 2.55228 7.55228 3 7 3H4.41421L9.70711 8.29289C10.0976 8.68342 10.0976 9.31658 9.70711 9.70711C9.31658 10.0976 8.68342 10.0976 8.29289 9.70711L3 4.41421V7C3 7.55228 2.55228 8 2 8C1.44772 8 1 7.55228 1 7V2ZM17 1H22C22.5523 1 23 1.44772 23 2V7C23 7.55228 22.5523 8 22 8C21.4477 8 21 7.55228 21 7V4.41421L15.7071 9.70711C15.3166 10.0976 14.6834 10.0976 14.2929 9.70711C13.9024 9.31658 13.9024 8.68342 14.2929 8.29289L19.5858 3H17C16.4477 3 16 2.55228 16 2C16 1.44772 16.4477 1 17 1ZM9.70711 14.2929C10.0976 14.6834 10.0976 15.3166 9.70711 15.7071L4.41421 21H7C7.55228 21 8 21.4477 8 22C8 22.5523 7.55228 23 7 23H2C1.44772 23 1 22.5523 1 22V17C1 16.4477 1.44772 16 2 16C2.55228 16 3 16.4477 3 17V19.5858L8.29289 14.2929C8.68342 13.9024 9.31658 13.9024 9.70711 14.2929ZM14.2929 14.2929C14.6834 13.9024 15.3166 13.9024 15.7071 14.2929L21 19.5858V17C21 16.4477 21.4477 16 22 16C22.5523 16 23 16.4477 23 17V22C23 22.5523 22.5523 23 22 23H17C16.4477 23 16 22.5523 16 22C16 21.4477 16.4477 21 17 21H19.5858L14.2929 15.7071C13.9024 15.3166 13.9024 14.6834 14.2929 14.2929Z" fill="#293644"/>
</svg>
