<?xml version="1.0" encoding="UTF-8" standalone="no"?> <svg width="24" height="24" viewBox="0 0 24 24" fill="none" xmlns="http://www.w3.org/2000/svg">
<path fill-rule="evenodd" clip-rule="evenodd" d="M18.707 3.12126C18.3165 2.73074 17.6834 2.73074 17.2928 3.12126L14.707 5.70705C14.3165 6.09757 13.6834 6.09757 13.2928 5.70705C12.9023 5.31652 12.9023 4.68336 13.2928 4.29284L15.8786 1.70705C17.0502 0.535475 18.9497 0.535477 20.1213 1.70705L22.2928 3.87862C23.4644 5.0502 23.4644 6.94969 22.2928 8.12126L15.1213 15.2928C13.9497 16.4644 12.0502 16.4644 10.8786 15.2928L10.2928 14.707C9.90231 14.3165 9.90231 13.6834 10.2928 13.2928C10.6834 12.9023 11.3165 12.9023 11.707 13.2928L12.2928 13.8786C12.6834 14.2691 13.3165 14.2691 13.707 13.8786L20.8786 6.70705C21.2691 6.31652 21.2691 5.68336 20.8786 5.29284L18.707 3.12126ZM8.87862 8.70705C10.0502 7.53548 11.9497 7.53548 13.1213 8.70705L13.7071 9.29284C14.0976 9.68336 14.0976 10.3165 13.707 10.7071C13.3165 11.0976 12.6834 11.0976 12.2928 10.707L11.707 10.1213C11.3165 9.73074 10.6834 9.73074 10.2928 10.1213L3.12126 17.2928C2.73074 17.6834 2.73074 18.3165 3.12126 18.707L5.29284 20.8786C5.68336 21.2691 6.31652 21.2691 6.70705 20.8786L9.29284 18.2928C9.68336 17.9023 10.3165 17.9023 10.707 18.2928C11.0976 18.6834 11.0976 19.3165 10.707 19.7071L8.12126 22.2928C6.94969 23.4644 5.0502 23.4644 3.87862 22.2928L1.70705 20.1213C0.535477 18.9497 0.535474 17.0502 1.70705 15.8786L8.87862 8.70705Z" fill="#293644"/>
</svg>
