<?xml version="1.0" encoding="UTF-8" standalone="no"?> <svg width="24" height="24" viewBox="0 0 24 24" fill="none" xmlns="http://www.w3.org/2000/svg">
<path fill-rule="evenodd" clip-rule="evenodd" d="M20 3.01411C20 2.37103 19.4018 1.89512 18.7751 2.03972L9.77514 4.11665C9.32141 4.22135 9 4.62538 9 5.09104V6.74296L20 4.2045V3.01411ZM20 6.25706L9 8.79552V20.4505C9 22.1189 7.82239 23.5553 6.18641 23.8825L6.12834 23.8941C3.99261 24.3213 2 22.6877 2 20.5097C2 18.8645 3.16127 17.448 4.77457 17.1253L7 16.6802V5.09104C7 3.69407 7.96423 2.48199 9.32542 2.16786L18.3254 0.0909404C20.2053 -0.342871 22 1.08486 22 3.01411V17.4505C22 19.1189 20.8224 20.5553 19.1864 20.8825L19.1283 20.8941C16.9926 21.3213 15 19.6877 15 17.5097C15 15.8645 16.1613 14.448 17.7746 14.1253L20 13.6802V6.25706ZM20 15.7198L18.1668 16.0865C17.4884 16.2221 17 16.8178 17 17.5097C17 18.4257 17.838 19.1126 18.7361 18.933L18.7942 18.9214C19.4953 18.7811 20 18.1655 20 17.4505V15.7198ZM7 18.7198L5.1668 19.0865C4.48836 19.2221 4 19.8178 4 20.5097C4 21.4257 4.83796 22.1126 5.7361 21.933L5.79417 21.9214C6.49531 21.7811 7 21.1655 7 20.4505V18.7198Z" fill="#293644"/>
</svg>
