<?xml version="1.0" encoding="UTF-8" standalone="no"?> <svg width="24" height="24" viewBox="0 0 24 24" fill="none" xmlns="http://www.w3.org/2000/svg">
<path fill-rule="evenodd" clip-rule="evenodd" d="M19 1C19.5523 1 20 1.44772 20 2V22C20 22.5523 19.5523 23 19 23C18.4477 23 18 22.5523 18 22V15.0575L8.85346 22.244C6.88507 23.7906 4 22.3884 4 19.8851V4.11493C4 1.61163 6.88508 0.209383 8.85346 1.75597L18 8.94254V2C18 1.44772 18.4477 1 19 1ZM18 11.9721C18 11.6652 17.8591 11.3753 17.6178 11.1858L7.61782 3.32861C6.96169 2.81308 6 3.2805 6 4.11493V19.8851C6 20.7195 6.96169 21.1869 7.61782 20.6714L17.6178 12.8142C17.8591 12.6247 18 12.3348 18 12.0279V11.9721Z" fill="#293644"/>
</svg>
