<?xml version="1.0" encoding="UTF-8" standalone="no"?> <svg width="24" height="24" viewBox="0 0 24 24" fill="none" xmlns="http://www.w3.org/2000/svg">
<path fill-rule="evenodd" clip-rule="evenodd" d="M3 3C3 1.34314 4.34315 0 6 0H8C9.65685 0 11 1.34315 11 3V21C11 22.6569 9.65685 24 8 24H6C4.34315 24 3 22.6569 3 21V3ZM6 2C5.44771 2 5 2.44772 5 3V21C5 21.5523 5.44772 22 6 22H8C8.55228 22 9 21.5523 9 21V3C9 2.44772 8.55228 2 8 2H6ZM13 3C13 1.34314 14.3431 0 16 0H18C19.6569 0 21 1.34315 21 3V21C21 22.6569 19.6569 24 18 24H16C14.3431 24 13 22.6569 13 21V3ZM16 2C15.4477 2 15 2.44772 15 3V21C15 21.5523 15.4477 22 16 22H18C18.5523 22 19 21.5523 19 21V3C19 2.44772 18.5523 2 18 2H16Z" fill="#293644"/>
</svg>
