<?xml version="1.0" encoding="UTF-8" standalone="no"?> <svg width="24" height="24" viewBox="0 0 24 24" fill="none" xmlns="http://www.w3.org/2000/svg">
<path fill-rule="evenodd" clip-rule="evenodd" d="M0 5C0 4.44772 0.447715 4 1 4H23C23.5523 4 24 4.44772 24 5C24 5.55228 23.5523 6 23 6H1C0.447715 6 0 5.55228 0 5ZM0.617317 9.07612C0.990991 8.92134 1.42111 9.0069 1.70711 9.29289L6.70711 14.2929C7.09763 14.6834 7.09763 15.3166 6.70711 15.7071L1.70711 20.7071C1.42111 20.9931 0.990991 21.0787 0.617317 20.9239C0.243642 20.7691 0 20.4045 0 20V10C0 9.59554 0.243642 9.2309 0.617317 9.07612ZM23 11H10C9.44771 11 9 10.5523 9 10C9 9.44772 9.44771 9 10 9H23C23.5523 9 24 9.44772 24 10C24 10.5523 23.5523 11 23 11ZM2 12.4142V17.5858L4.58579 15L2 12.4142ZM9 15C9 14.4477 9.44771 14 10 14H23C23.5523 14 24 14.4477 24 15C24 15.5523 23.5523 16 23 16H10C9.44771 16 9 15.5523 9 15ZM9 20C9 19.4477 9.44771 19 10 19H23C23.5523 19 24 19.4477 24 20C24 20.5523 23.5523 21 23 21H10C9.44771 21 9 20.5523 9 20Z" fill="#293644"/>
</svg>
