<?xml version="1.0" encoding="UTF-8" standalone="no"?> <svg width="24" height="24" viewBox="0 0 24 24" fill="none" xmlns="http://www.w3.org/2000/svg">
<path fill-rule="evenodd" clip-rule="evenodd" d="M5 1C5.55228 1 6 1.44772 6 2V8.94254L15.1465 1.75597C17.1149 0.209384 20 1.61163 20 4.11493V19.8851C20 22.3884 17.1149 23.7906 15.1465 22.244L6 15.0575V22C6 22.5523 5.55228 23 5 23C4.44772 23 4 22.5523 4 22V2C4 1.44772 4.44772 1 5 1ZM6 12.0279C6 12.3348 6.14089 12.6247 6.38218 12.8142L16.3822 20.6714C17.0383 21.1869 18 20.7195 18 19.8851V4.11493C18 3.2805 17.0383 2.81308 16.3822 3.32861L6.38218 11.1858C6.14089 11.3753 6 11.6652 6 11.9721V12.0279Z" fill="#293644"/>
</svg>
