<?xml version="1.0" encoding="UTF-8" standalone="no"?> <svg width="24" height="24" viewBox="0 0 24 24" fill="none" xmlns="http://www.w3.org/2000/svg">
<g clip-path="url(#clip0)">
<path fill-rule="evenodd" clip-rule="evenodd" d="M19.2929 2.29289C19.6834 1.90237 20.3166 1.90237 20.7071 2.29289L23.7071 5.29289C24.0976 5.68342 24.0976 6.31658 23.7071 6.70711L20.7071 9.70711C20.3166 10.0976 19.6834 10.0976 19.2929 9.70711C18.9024 9.31658 18.9024 8.68342 19.2929 8.29289L20.5858 7H7C4.23858 7 2 9.23858 2 12C2 12.5523 1.55228 13 1 13C0.447715 13 1.49012e-08 12.5523 1.49012e-08 12C1.49012e-08 8.13401 3.13401 5 7 5H20.5858L19.2929 3.70711C18.9024 3.31658 18.9024 2.68342 19.2929 2.29289ZM13.3827 9.07612C13.7564 9.2309 14 9.59554 14 10V14C14 14.5523 13.5523 15 13 15C12.4477 15 12 14.5523 12 14V12.4142L11.7071 12.7071C11.3166 13.0976 10.6834 13.0976 10.2929 12.7071C9.90237 12.3166 9.90237 11.6834 10.2929 11.2929L12.2929 9.29289C12.5789 9.0069 13.009 8.92134 13.3827 9.07612ZM24 12C24 15.866 20.866 19 17 19H3.41421L4.70711 20.2929C5.09763 20.6834 5.09763 21.3166 4.70711 21.7071C4.31658 22.0976 3.68342 22.0976 3.29289 21.7071L0.292893 18.7071C-0.0976311 18.3166 -0.0976311 17.6834 0.292893 17.2929L3.29289 14.2929C3.68342 13.9024 4.31658 13.9024 4.70711 14.2929C5.09763 14.6834 5.09763 15.3166 4.70711 15.7071L3.41421 17H17C19.7614 17 22 14.7614 22 12C22 11.4477 22.4477 11 23 11C23.5523 11 24 11.4477 24 12Z" fill="#293644"/>
</g>
<defs>
<clipPath id="clip0">
<rect width="24" height="24" fill="white"/>
</clipPath>
</defs>
</svg>
