<?xml version="1.0" encoding="UTF-8" standalone="no"?> <svg width="24" height="24" viewBox="0 0 24 24" fill="none" xmlns="http://www.w3.org/2000/svg">
<path fill-rule="evenodd" clip-rule="evenodd" d="M11.7071 2.29289C12.0976 2.68342 12.0976 3.31658 11.7071 3.70711L10.4142 5H21C22.6569 5 24 6.34315 24 8V16C24 17.6569 22.6569 19 21 19H20C19.4477 19 19 18.5523 19 18C19 17.4477 19.4477 17 20 17H21C21.5523 17 22 16.5523 22 16V8C22 7.44772 21.5523 7 21 7H10.4142L11.7071 8.29289C12.0976 8.68342 12.0976 9.31658 11.7071 9.70711C11.3166 10.0976 10.6834 10.0976 10.2929 9.70711L7.29289 6.70711C6.90237 6.31658 6.90237 5.68342 7.29289 5.29289L10.2929 2.29289C10.6834 1.90237 11.3166 1.90237 11.7071 2.29289ZM3 7C2.44772 7 2 7.44772 2 8V16C2 16.5523 2.44772 17 3 17H13.5858L12.2929 15.7071C11.9024 15.3166 11.9024 14.6834 12.2929 14.2929C12.6834 13.9024 13.3166 13.9024 13.7071 14.2929L16.7071 17.2929C17.0976 17.6834 17.0976 18.3166 16.7071 18.7071L13.7071 21.7071C13.3166 22.0976 12.6834 22.0976 12.2929 21.7071C11.9024 21.3166 11.9024 20.6834 12.2929 20.2929L13.5858 19H3C1.34315 19 0 17.6569 0 16V8C0 6.34315 1.34315 5 3 5H4C4.55228 5 5 5.44772 5 6C5 6.55228 4.55228 7 4 7H3Z" fill="#293644"/>
</svg>
