<?xml version="1.0" encoding="UTF-8" standalone="no"?> <svg width="24" height="24" viewBox="0 0 24 24" fill="none" xmlns="http://www.w3.org/2000/svg">
<path fill-rule="evenodd" clip-rule="evenodd" d="M3.6 6.20001C2.94076 5.70559 2 6.17597 2 7.00001V17C2 17.8241 2.94076 18.2944 3.6 17.8L10.2667 12.8C10.8 12.4 10.8 11.6 10.2667 11.2L3.6 6.20001ZM0 7.00001C0 4.52788 2.82229 3.11673 4.8 4.60001L11 9.25001V7.00001C11 4.52788 13.8223 3.11673 15.8 4.60001L22.4667 9.60001C24.0667 10.8 24.0667 13.2 22.4667 14.4L15.8 19.4C13.8223 20.8833 11 19.4722 11 17V14.75L4.8 19.4C2.82229 20.8833 0 19.4722 0 17V7.00001ZM14.6 6.20001C13.9408 5.70559 13 6.17597 13 7.00001V17C13 17.8241 13.9408 18.2944 14.6 17.8L21.2667 12.8C21.8 12.4 21.8 11.6 21.2667 11.2L14.6 6.20001Z" fill="#293644"/>
</svg>
