<?xml version="1.0" encoding="UTF-8" standalone="no"?> <svg width="24" height="24" viewBox="0 0 24 24" fill="none" xmlns="http://www.w3.org/2000/svg">
<g clip-path="url(#clip0)">
<path fill-rule="evenodd" clip-rule="evenodd" d="M8.20004 4.60001C10.1777 3.11673 13 4.52788 13 7.00001V9.25001L19.2 4.60001C21.1777 3.11673 24 4.52788 24 7.00001V17C24 19.4722 21.1777 20.8833 19.2 19.4L13 14.75V17C13 19.4722 10.1777 20.8833 8.20004 19.4L1.53337 14.4C-0.0666234 13.2 -0.0666285 10.8 1.53337 9.60001L8.20004 4.60001ZM11 7.00001C11 6.17597 10.0593 5.70559 9.40004 6.20001L2.73337 11.2C2.20004 11.6 2.20004 12.4 2.73338 12.8L9.40004 17.8C10.0593 18.2944 11 17.8241 11 17V7.00001ZM22 7.00001C22 6.17597 21.0593 5.70559 20.4 6.20001L13.7334 11.2C13.2 11.6 13.2 12.4 13.7334 12.8L20.4 17.8C21.0593 18.2944 22 17.8241 22 17V7.00001Z" fill="#293644"/>
</g>
<defs>
<clipPath id="clip0">
<rect width="24" height="24" fill="white"/>
</clipPath>
</defs>
</svg>
