<?xml version="1.0" encoding="UTF-8" standalone="no"?> <svg width="24" height="24" viewBox="0 0 24 24" fill="none" xmlns="http://www.w3.org/2000/svg">
<path fill-rule="evenodd" clip-rule="evenodd" d="M13 6.00001C13 5.17597 12.0592 4.70559 11.4 5.20001L7.13333 8.40001C6.61404 8.78948 5.98244 9.00001 5.33333 9.00001H3C2.44772 9.00001 2 9.44773 2 10V14C2 14.5523 2.44772 15 3 15H5.33333C5.98244 15 6.61405 15.2105 7.13333 15.6L11.4 18.8C12.0592 19.2944 13 18.8241 13 18V6.00001ZM10.2 3.60001C12.1777 2.11673 15 3.52788 15 6.00001V18C15 20.4722 12.1777 21.8833 10.2 20.4L5.93333 17.2C5.76024 17.0702 5.5497 17 5.33333 17H3C1.34315 17 0 15.6569 0 14V10C0 8.34316 1.34315 7.00001 3 7.00001H5.33333C5.5497 7.00001 5.76024 6.92984 5.93333 6.80001L10.2 3.60001ZM19.6569 4.92895C20.0474 4.53842 20.6805 4.53842 21.0711 4.92895C22.8796 6.7375 24 9.23887 24 12C24 14.7612 22.8796 17.2625 21.0711 19.0711C20.6805 19.4616 20.0474 19.4616 19.6569 19.0711C19.2663 18.6806 19.2663 18.0474 19.6569 17.6569C21.1057 16.2081 22 14.2094 22 12C22 9.7906 21.1057 7.79197 19.6569 6.34316C19.2663 5.95264 19.2663 5.31947 19.6569 4.92895ZM16.8284 7.75737C17.219 7.36685 17.8521 7.36685 18.2426 7.75737C19.3273 8.84206 20 10.3434 20 12C20 13.6566 19.3273 15.158 18.2426 16.2427C17.8521 16.6332 17.219 16.6332 16.8284 16.2427C16.4379 15.8521 16.4379 15.219 16.8284 14.8284C17.5534 14.1035 18 13.1049 18 12C18 10.8952 17.5534 9.89654 16.8284 9.17159C16.4379 8.78106 16.4379 8.1479 16.8284 7.75737Z" fill="#293644"/>
</svg>
