<?xml version="1.0" encoding="UTF-8" standalone="no"?> <svg width="24" height="24" viewBox="0 0 24 24" fill="none" xmlns="http://www.w3.org/2000/svg">
<path fill-rule="evenodd" clip-rule="evenodd" d="M13 5.99998C13 5.17594 12.0592 4.70556 11.4 5.19998L7.13333 8.39998C6.61404 8.78945 5.98244 8.99998 5.33333 8.99998H3C2.44772 8.99998 2 9.4477 2 9.99998V14C2 14.5523 2.44772 15 3 15H5.33333C5.98244 15 6.61405 15.2105 7.13333 15.6L11.4 18.8C12.0592 19.2944 13 18.824 13 18V5.99998ZM10.2 3.59998C12.1777 2.1167 15 3.52785 15 5.99998V18C15 20.4721 12.1777 21.8833 10.2 20.4L5.93333 17.2C5.76024 17.0702 5.5497 17 5.33333 17H3C1.34315 17 0 15.6568 0 14V9.99998C0 8.34313 1.34315 6.99998 3 6.99998H5.33333C5.5497 6.99998 5.76024 6.92981 5.93333 6.79998L10.2 3.59998ZM18.2929 9.29291C18.6834 8.90238 19.3166 8.90238 19.7071 9.29291L21 10.5858L22.2929 9.29291C22.6834 8.90238 23.3166 8.90238 23.7071 9.29291C24.0976 9.68343 24.0976 10.3166 23.7071 10.7071L22.4142 12L23.7071 13.2929C24.0976 13.6834 24.0976 14.3166 23.7071 14.7071C23.3166 15.0976 22.6834 15.0976 22.2929 14.7071L21 13.4142L19.7071 14.7071C19.3166 15.0976 18.6834 15.0976 18.2929 14.7071C17.9024 14.3166 17.9024 13.6834 18.2929 13.2929L19.5858 12L18.2929 10.7071C17.9024 10.3166 17.9024 9.68343 18.2929 9.29291Z" fill="#293644"/>
</svg>
