<?xml version="1.0" encoding="UTF-8" standalone="no"?> <svg width="24" height="24" viewBox="0 0 24 24" fill="none" xmlns="http://www.w3.org/2000/svg">
<path fill-rule="evenodd" clip-rule="evenodd" d="M15 5.99998C15 5.17594 14.0592 4.70556 13.4 5.19998L9.13333 8.39998C8.61404 8.78945 7.98244 8.99998 7.33333 8.99998H5C4.44772 8.99998 4 9.4477 4 9.99998V14C4 14.5523 4.44772 15 5 15H7.33333C7.98244 15 8.61405 15.2105 9.13333 15.6L13.4 18.8C14.0592 19.2944 15 18.824 15 18V5.99998ZM12.2 3.59998C14.1777 2.1167 17 3.52785 17 5.99998V18C17 20.4721 14.1777 21.8833 12.2 20.4L7.93333 17.2C7.76024 17.0702 7.5497 17 7.33333 17H5C3.34315 17 2 15.6568 2 14V9.99998C2 8.34313 3.34315 6.99998 5 6.99998H7.33333C7.5497 6.99998 7.76024 6.92981 7.93333 6.79998L12.2 3.59998ZM18.8284 7.75734C19.219 7.36682 19.8521 7.36682 20.2426 7.75734C21.3273 8.84204 22 10.3434 22 12C22 13.6566 21.3273 15.1579 20.2426 16.2426C19.8521 16.6332 19.219 16.6332 18.8284 16.2426C18.4379 15.8521 18.4379 15.2189 18.8284 14.8284C19.5534 14.1035 20 13.1048 20 12C20 10.8951 19.5534 9.89651 18.8284 9.17156C18.4379 8.78103 18.4379 8.14787 18.8284 7.75734Z" fill="#293644"/>
</svg>
